HIERARCHY
ROOT root
{
	OFFSET	0	13.1	24.9
	CHANNELS 6  Xposition Yposition Zposition Xrotation Yrotation Zrotation
	JOINT spine_1
	{
		OFFSET	0	9.99999	0
		CHANNELS 3  Xrotation Yrotation Zrotation
		JOINT spine_2
		{
			OFFSET	0	112	-10
			CHANNELS 3  Xrotation Yrotation Zrotation
			JOINT spine_3
			{
				OFFSET	0	206.5	19.3
				CHANNELS 3  Xrotation Yrotation Zrotation
				JOINT spine_4
				{
					OFFSET	0	110.4	14.6
					CHANNELS 3  Xrotation Yrotation Zrotation
					JOINT neck_1
					{
						OFFSET	0	71.8	-50.3
						CHANNELS 3  Xrotation Yrotation Zrotation
						JOINT neck_2
						{
							OFFSET	0	86.2	-25.8
							CHANNELS 3  Xrotation Yrotation Zrotation
							JOINT head_ee
							{
								OFFSET	0	179.8	-8.7
								CHANNELS 3  Xrotation Yrotation Zrotation
								End Site
								{
									OFFSET	1	0	0
								}
							}
						}
					}
					JOINT left_clavicle
					{
						OFFSET	-43.2	22.4	-70.8
						CHANNELS 3  Xrotation Yrotation Zrotation
						JOINT left_shoulder
						{
							OFFSET	-93.9	-5.79999	48.7
							CHANNELS 3  Xrotation Yrotation Zrotation
							JOINT left_elbow
							{
								OFFSET	-291.4	-30.8	15.2
								CHANNELS 3  Xrotation Yrotation Zrotation
								JOINT left_lowarm_twist
								{
									OFFSET	-110.7	-3.89999	13.6
									CHANNELS 3  Xrotation Yrotation Zrotation
									JOINT left_hand
									{
										OFFSET	-110.7	-3.89999	13.6
										CHANNELS 3  Xrotation Yrotation Zrotation
										JOINT left_ee
										{
											OFFSET	-80.8	-5.10001	12.1
											CHANNELS 3  Xrotation Yrotation Zrotation
											End Site
											{
												OFFSET	1	0	0
											}
										}
									}
								}
							}
						}
					}
					JOINT right_clavicle
					{
						OFFSET	43.2	22.4	-70.8
						CHANNELS 3  Xrotation Yrotation Zrotation
						JOINT right_shoulder
						{
							OFFSET	93.9	-5.79999	48.7
							CHANNELS 3  Xrotation Yrotation Zrotation
							JOINT right_elbow
							{
								OFFSET	291.4	-30.8	15.2
								CHANNELS 3  Xrotation Yrotation Zrotation
								JOINT right_lowarm_twist
								{
									OFFSET	110.7	-3.89999	13.6
									CHANNELS 3  Xrotation Yrotation Zrotation
									JOINT right_hand
									{
										OFFSET	110.7	-3.89999	13.6
										CHANNELS 3  Xrotation Yrotation Zrotation
										JOINT right_ee
										{
											OFFSET	80.8	-5.10001	12.1
											CHANNELS 3  Xrotation Yrotation Zrotation
											End Site
											{
												OFFSET	1	0	0
											}
										}
									}
								}
							}
						}
					}
				}
			}
		}
	}
	JOINT left_hip
	{
		OFFSET	-82.8	-127.5	0.300001
		CHANNELS 3  Xrotation Yrotation Zrotation
		JOINT left_knee
		{
			OFFSET	-28.2	-396.7	2.2
			CHANNELS 3  Xrotation Yrotation Zrotation
			JOINT left_ankle
			{
				OFFSET	-11.7	-411.3	35.4
				CHANNELS 3  Xrotation Yrotation Zrotation
				JOINT left_toes
				{
					OFFSET	0	-60	-88.6
					CHANNELS 3  Xrotation Yrotation Zrotation
					JOINT left_foot_ee
					{
						OFFSET	-22.5	-16.5	-42.2
						CHANNELS 3  Xrotation Yrotation Zrotation
						End Site
						{
							OFFSET	1	0	0
						}
					}
				}
			}
		}
	}
	JOINT right_hip
	{
		OFFSET	82.8	-127.5	0.300001
		CHANNELS 3  Xrotation Yrotation Zrotation
		JOINT right_knee
		{
			OFFSET	28.2	-396.7	2.2
			CHANNELS 3  Xrotation Yrotation Zrotation
			JOINT right_ankle
			{
				OFFSET	11.7	-411.3	35.4
				CHANNELS 3  Xrotation Yrotation Zrotation
				JOINT right_toes
				{
					OFFSET	0	-60	-88.6
					CHANNELS 3  Xrotation Yrotation Zrotation
					JOINT right_foot_ee
					{
						OFFSET	22.5	-16.5	-42.2
						CHANNELS 3  Xrotation Yrotation Zrotation
						End Site
						{
							OFFSET	1	0	0
						}
					}
				}
			}
		}
	}
}
MOTION
Frames: 5
Frame Time: 0.02
1882.26 736.114 -607.966 -4.67479 -81.2549 5.10613 0.142904 -0.780041 -4.71382 0.155133 -0.478855 -4.75378 0.200946 0.514936 -4.75001 0.169555 -0.240821 -4.77172 -2.53472 -1.32552 9.41961 -2.19315 -9.81171 9.71391 -0.0 0.0 -0.0 5.13034 -6.79581 9.63684 1.2809 -6.97832 76.4715 1.41124 -34.9549 0.444372 -28.7015 -1.83735 3.13695 1.23165 8.52065 11.579 -0.0 0.0 -0.0 -0.312406 -5.35388 -0.066167 -2.96497 6.20235 -68.2559 1.53345 37.2187 -0.516368 23.9534 -0.213346 3.03019 4.13149 11.4647 -23.6096 0.0 0.0 0.0 -2.48592 0.9002 -12.4322 3.81502 -0.175797 -0.558849 19.5178 4.65942 -2.67329 -8.32983 0.0 0.0 -0.0 0.0 -0.0 -4.63801 10.6775 -15.9837 4.79323 0.22685 0.700201 23.668 -17.3012 3.22886 -19.0488 0.0 0.0 0.0 0.0 0.0 
1890.01 735.523 -607.382 -3.66502 -81.0145 5.80178 0.278072 -0.798053 -4.67839 0.290105 -0.499078 -4.71957 0.336803 0.476765 -4.72187 0.305808 -0.274087 -4.73792 -3.30466 -1.05257 9.07808 -3.00428 -8.96416 9.29691 -0.0 0.0 -0.0 5.02082 -7.503 9.3745 -0.13711 -8.44007 76.7242 1.4857 -36.3498 0.487778 -28.5796 -1.82636 3.12582 1.17646 7.06285 10.663 -0.0 0.0 -0.0 0.0269442 -5.96661 -0.757944 -3.70176 6.956 -67.6389 1.31316 33.0424 -0.38952 23.8761 -0.214705 3.02041 4.37564 12.7525 -24.7509 0.0 0.0 0.0 -3.00721 0.947995 -12.4676 4.75003 -0.224544 -0.693976 18.983 3.68744 -2.60875 -8.43606 0.0 0.0 -0.0 0.0 -0.0 -5.49253 11.1692 -15.769 5.41872 0.260759 0.790128 24.0365 -18.4519 3.28628 -18.9383 0.0 0.0 0.0 0.0 0.0 
1900.84 734.866 -605.597 -1.36724 -80.6226 7.90129 0.508928 -0.769242 -4.59182 0.520528 -0.475815 -4.63135 0.563603 0.463146 -4.63263 0.53377 -0.273489 -4.64765 -3.98058 -0.225758 8.11577 -3.75951 -6.63927 8.34361 -0.0 0.0 -0.0 4.28631 -6.00172 7.95726 -1.50033 -9.81498 77.1063 1.80509 -41.7988 0.689326 -27.8384 -1.76012 3.05769 1.31526 2.65726 9.88162 -0.0 0.0 -0.0 0.567589 -6.92998 -1.8398 -3.58827 6.09121 -66.23 0.969141 25.6445 -0.220584 24.7725 -0.198133 3.13371 4.79288 15.1905 -26.5358 0.0 0.0 0.0 -3.64323 1.06297 -12.6227 4.4135 -0.206745 -0.645431 19.3252 2.72398 -2.65469 -8.76081 0.0 0.0 -0.0 0.0 -0.0 -5.76851 12.152 -16.0811 4.91714 0.233489 0.718044 22.5379 -19.3904 3.11381 -17.8811 0.0 0.0 0.0 0.0 0.0 
1913.48 733.162 -606.463 -0.702492 -81.2077 8.47879 0.735648 -0.71756 -4.51172 0.746866 -0.429318 -4.54814 0.784628 0.474541 -4.54365 0.755916 -0.248229 -4.56158 -4.42991 -0.92494 6.70753 -4.27324 -6.79453 6.73787 -0.0 0.0 -0.0 4.15429 -3.96332 7.8095 -2.50755 -10.9928 77.1894 1.94272 -43.8967 0.782938 -25.326 -1.54226 2.82056 1.60375 -4.85801 8.78329 -0.0 0.0 -0.0 0.00236159 -7.96573 -0.949453 -1.2548 3.9478 -67.2552 0.671703 18.4045 -0.108821 26.4383 -0.162637 3.34353 4.92851 18.0797 -25.9023 0.0 0.0 0.0 -4.4992 0.432242 -12.7871 2.88816 -0.129664 -0.424149 21.871 1.26423 -2.97451 -9.73616 0.0 0.0 -0.0 0.0 -0.0 -6.01837 14.622 -15.9353 4.37584 0.204771 0.639992 23.3178 -19.3911 3.21004 -16.0327 0.0 0.0 0.0 0.0 0.0 
1921.32 730.963 -602.866 1.21061 -79.8302 10.1435 0.879177 -0.795032 -4.54616 0.89053 -0.504449 -4.58742 0.934322 0.39636 -4.59799 0.904987 -0.333991 -4.60293 -6.13604 -0.000423845 6.48345 -6.00659 -4.7728 6.54418 -0.0 0.0 -0.0 3.57282 -4.87819 6.58585 -3.16762 -12.6325 78.2804 2.1683 -47.0403 0.943801 -27.3539 -1.71729 3.0127 1.60741 -3.9562 9.18449 -0.0 0.0 -0.0 0.859164 -8.71444 -2.53873 -1.38674 5.93996 -64.8689 0.487851 13.5862 -0.0581135 25.0336 -0.192972 3.16667 5.13684 17.755 -27.6256 0.0 0.0 0.0 -5.18976 0.732532 -12.8601 3.43388 -0.156562 -0.503547 22.3721 -0.759218 -3.04751 -10.3558 0.0 0.0 -0.0 0.0 -0.0 -6.41519 14.2858 -16.2381 2.5024 0.111108 0.367874 26.6912 -19.7615 3.62049 -15.6709 0.0 0.0 0.0 0.0 0.0 
